<?xml version="1.0" encoding="UTF-8" standalone="no"?>
<svg
   width="1024"
   height="1024"
   viewBox="0 0 1024 1024"
   fill="none"
   version="1.1"
   id="svg4592"
   sodipodi:docname="wallet_icon.svg"
   inkscape:version="1.2.2 (732a01da63, 2022-12-09)"
   inkscape:export-filename="application\LunaCoin\wallet_icon.png"
   inkscape:export-xdpi="96"
   inkscape:export-ydpi="96"
   xmlns:inkscape="http://www.inkscape.org/namespaces/inkscape"
   xmlns:sodipodi="http://sodipodi.sourceforge.net/DTD/sodipodi-0.dtd"
   xmlns="http://www.w3.org/2000/svg"
   xmlns:svg="http://www.w3.org/2000/svg">
  <defs
     id="defs4596" />
  <sodipodi:namedview
     id="namedview4594"
     pagecolor="#ffffff"
     bordercolor="#000000"
     borderopacity="0.25"
     inkscape:showpageshadow="2"
     inkscape:pageopacity="0.0"
     inkscape:pagecheckerboard="false"
     inkscape:deskcolor="#d1d1d1"
     showgrid="false"
     inkscape:zoom="0.41632921"
     inkscape:cx="-91.273923"
     inkscape:cy="-4.8038907"
     inkscape:window-width="1920"
     inkscape:window-height="1009"
     inkscape:window-x="-8"
     inkscape:window-y="-8"
     inkscape:window-maximized="1"
     inkscape:current-layer="svg4592" />
  <path
     d="m 474.7556,674.17052 c 7.56296,6.15576 14.57398,12.63308 21.44032,19.5134 3.9023,3.86572 7.88218,7.53212 12.12014,11.0472 8.15068,6.92688 15.75542,14.38916 23.39892,21.83834 1.58868,1.54514 3.17884,3.0917 4.76752,4.63682 3.31606,3.22556 6.62914,6.45404 9.94074,9.68396 4.20214,4.0985 8.41322,8.18684 12.6273,12.2708 3.28326,3.18626 6.55904,6.37836 9.83336,9.57336 1.54688,1.5073 3.09678,3.01314 4.64964,4.51608 8.89208,8.61312 17.27696,17.44156 25.09054,27.01058 2.89094,3.53254 5.87882,6.96616 8.89358,10.39686 24.61468,30.27252 36.35292,68.49472 32.50282,106.89296 -4.12606,33.76722 -21.36424,63.1115 -47.71678,85.41832 -29.04504,21.5721 -65.55312,30.2551 -101.63604,25.9674 -33.39788,-5.6262 -63.2544,-23.9334 -82.88976,-50.85234 -22.04596,-31.53538 -29.24944,-66.74298 -22.33834,-104.50106 11.28626,-45.4648 40.99662,-75.8959 74.39896,-107.5724 10.97598,7.29932 10.97598,7.29932 15.29,12.54868 5.69684,6.66936 12.05598,12.58652 18.48824,18.56624 3.39364,3.6722 5.00468,6.40454 6.49788,11.07774 -0.59222,0.55434 -1.18442,1.10866 -1.79302,1.67898 -26.21232,24.69144 -53.93124,52.93436 -55.59152,90.52656 -0.30132,20.48528 5.96684,38.35896 20.19028,53.7011 14.88874,13.89738 33.4441,19.26604 53.72538,18.95324 17.23222,-1.33998 33.91846,-8.0559 45.8402,-20.4591 15.7241,-19.05362 18.8537,-42.1272 16.68922,-65.83512 -5.6834,-34.2168 -38.56512,-63.76912 -63.81676,-85.90282 -5.64912,-5.00202 -11.05804,-10.23244 -16.45654,-15.48762 -0.90994,-0.88168 -1.81988,-1.7619 -2.75668,-2.66976 -4.34534,-4.25128 -8.5251,-8.5593 -12.50946,-13.13504 -8.58776,-9.6912 -18.12128,-18.54876 -27.434,-27.56926 -1.9646,-1.9103 -3.92916,-3.81918 -5.89376,-5.72948 -4.77496,-4.64118 -9.55438,-9.27802 -14.3368,-13.91194 2.1242,-6.72464 6.0444,-10.8348 11.10576,-15.62438 0.79062,-0.76384 1.58122,-1.52912 2.39568,-2.3177 2.51204,-2.42534 5.0405,-4.83614 7.56894,-7.24694 1.71248,-1.64842 3.42346,-3.29686 5.13298,-4.94674 4.18274,-4.03158 8.37742,-8.0486 12.58106,-12.05692 z"
     fill="#F53431"
     id="path4536"
     style="fill:#ff2800;fill-opacity:1;stroke:none;stroke-width:1.47319;stroke-opacity:1" />
  <path
     d="m 593.57316,27.02046 c 3.73374,3.224684 7.35562,6.535498 10.96106,9.894618 0.9174,0.785802 1.8348,1.571606 2.77906,2.381268 23.12148,20.580858 34.18548,52.036515 36.41858,81.674394 1.3112,47.97743 -20.71238,86.25928 -53.60008,120.28986 -8.46842,8.66258 -17.1248,17.13896 -25.87368,25.53238 -8.85628,-7.1742 -17.03232,-14.8911 -25.17258,-22.82478 -1.29182,-1.2425 -2.58514,-2.485 -3.91574,-3.76532 -1.22618,-1.19304 -2.45384,-2.38754 -3.71732,-3.61694 -1.11282,-1.07956 -2.22712,-2.1591 -3.37276,-3.27212 -2.60602,-2.89382 -2.60602,-2.89382 -4.09772,-7.25858 0.69066,-0.65036 1.37982,-1.3007 2.09136,-1.97142 27.05064,-25.60659 54.26688,-53.63998 56.38808,-92.30346 0.1462,-11.96046 -0.38636,-22.41813 -4.77794,-33.758651 -0.38038,-1.007096 -0.76226,-2.014336 -1.1531,-3.051984 -6.39644,-14.393522 -19.75468,-26.950353 -34.50918,-33.040357 -8.91444,-3.24447 -17.14868,-3.981678 -26.61654,-3.917952 -2.16148,0.0126 -2.16148,0.0126 -4.36624,0.02518 -19.51752,0.473868 -34.58526,7.250448 -48.11208,21.110889 -14.63664,16.942104 -18.07352,36.565625 -16.5132,58.157065 1.01138,6.94594 2.54784,13.61282 4.47512,20.36946 0.32818,1.20032 0.65784,2.40062 0.99646,3.6373 2.91034,8.52728 7.9702,15.6724 13.17478,23.00519 1.01884,1.44765 1.01884,1.44765 2.06004,2.92293 4.81524,6.55587 10.16152,12.55742 15.77632,18.46729 0.78464,0.8264 1.56928,1.6528 2.37628,2.50392 7.60622,7.9686 15.44516,15.69278 23.3691,23.35874 2.5016,2.42098 4.99722,4.84634 7.49286,7.2746 5.28364,5.13732 10.57472,10.26882 15.8658,15.40032 6.1742,5.987 12.3454,11.9769 18.51062,17.97264 2.44192,2.37152 4.88684,4.73866 7.33324,7.10582 7.43766,7.2193 14.66796,14.47354 21.33142,22.3883 -2.7164,5.72802 -6.5292,9.65048 -11.10576,14.02544 -0.7906,0.76672 -1.5812,1.53348 -2.39568,2.3235 -2.51652,2.43844 -5.04198,4.86526 -7.56894,7.2935 -1.71248,1.65424 -3.42346,3.30996 -5.13296,4.9671 -4.18574,4.0505 -8.3819,8.09082 -12.58106,12.12822 -10.2018,-8.1621 -19.40714,-17.26264 -28.7154,-26.36024 -1.76618,-1.72116 -3.53236,-3.44234 -5.29856,-5.16206 -3.68748,-3.59656 -7.3735,-7.19458 -11.05802,-10.79404 -4.69442,-4.58592 -9.39478,-9.166 -14.09814,-13.74462 -3.64424,-3.55002 -7.2855,-7.10292 -10.92676,-10.6573 -1.73038,-1.68916 -3.46226,-3.37686 -5.19412,-5.06312 -8.2954,-8.07772 -16.5356,-16.14234 -24.13584,-24.85876 -2.94166,-3.36086 -6.07872,-6.53842 -9.18894,-9.75086 -8.45052,-9.0467 -15.66294,-18.76992 -22.65458,-28.91654 -0.8622,-1.2425 -1.72292,-2.48354 -2.61048,-3.76242 -19.5906,-29.95535 -27.03722,-69.90293 -19.72636,-104.751891 7.74944,-30.557537 27.6682,-57.998197 53.66272,-76.261077 1.07702,-0.759614 2.15404,-1.519226 3.26236,-2.301682 44.9586,-28.85189 108.32936,-26.6344468 149.8645,6.956262 z"
     fill="#F63431"
     id="path4538"
     style="fill:#ff2800;fill-opacity:1;stroke:none;stroke-width:1.47319;stroke-opacity:1" />
  <path
     d="m 227.49298,433.4715 c 10.9924,8.78626 21.09874,18.31018 30.9649,28.2793 -2.3927,5.8284 -6.59484,9.71594 -11.10578,14.02688 -1.1859,1.15084 -1.1859,1.15084 -2.39568,2.3235 -2.51652,2.43844 -5.04196,4.86526 -7.56892,7.29206 -1.71248,1.65568 -3.42348,3.3114 -5.13298,4.96708 -4.18574,4.0505 -8.3819,8.09228 -12.58106,12.12822 -5.17176,-2.39042 -8.8354,-5.19698 -13.05244,-9.00158 -1.32316,-1.17558 -2.6463,-2.35262 -4.00972,-3.5631 -2.248,-2.0238 -4.48855,-4.05486 -6.71269,-6.10486 -21.8043,-19.57156 -45.6254,-29.57414 -75.34813,-28.39856 -14.36873,0.9064 -28.767152,5.81822 -39.099024,16.06084 -1.99859,1.90886 -1.99859,1.90886 -4.982006,1.90886 -0.402016,0.83514 -0.803884,1.67026 -1.21798,2.5301 -1.805416,3.36524 -3.882322,6.2969 -6.147332,9.3828 -10.072462,14.84454 -10.923332,30.18084 -8.449184,47.54676 3.689292,14.62632 13.979396,26.44316 26.763336,34.48016 6.52533,3.42924 13.28247,5.84876 20.37689,7.90456 0.94231,0.28226 1.88447,0.56306 2.85528,0.8526 20.99728,4.06504 41.90954,-1.88412 59.79662,-12.49196 21.55369,-15.09188 40.23286,-34.662 58.90458,-52.94452 2.14656,-2.09654 4.29164,-4.19162 6.43822,-6.28672 5.58346,-5.45012 11.16096,-10.9046 16.73696,-16.3591 5.71772,-5.59272 11.43992,-11.17962 17.1621,-16.76796 11.17738,-10.91772 22.35028,-21.8398 33.5202,-32.7648 10.11376,4.73576 16.78468,13.45366 24.00158,21.63176 5.17474,5.6349 10.73434,10.90462 16.27454,16.19616 -1.99888,4.37494 -4.1738,7.2717 -7.739,10.54818 -3.52638,3.2561 -6.73208,6.6417 -9.86614,10.25136 -8.25362,9.22274 -17.2367,17.7573 -26.11534,26.40096 -1.92878,1.88268 -3.85906,3.7668 -5.78932,5.65092 -4.02762,3.9312 -8.0597,7.85948 -12.0918,11.7863 -5.14192,5.00784 -10.27786,10.0215 -15.41232,15.0366 -3.9784,3.8861 -7.96126,7.76782 -11.94412,11.64954 -1.89446,1.8463 -3.78596,3.69404 -5.67892,5.5418 -34.90598,34.09604 -69.96561,60.48536 -121.66091,60.6294 -37.080444,-0.014 -67.359888,-11.2276 -93.977634,-36.73672 -0.932468,-0.8904 -1.865084,-1.78082 -2.826042,-2.69888 C 8.8406696,572.11372 -0.48433385,541.0512 0.01931643,511.026 2.21735,477.86256 18.025656,449.76516 43.022512,427.82206 97.913652,383.54448 173.81536,391.58874 227.49298,433.4715 Z"
     fill="#F53432"
     id="path4540"
     style="fill:#ff2800;fill-opacity:1;stroke:none;stroke-width:1.47319;stroke-opacity:1" />
  <path
     d="m 978.37576,424.11054 c 24.93094,21.2171 41.32774,47.44786 45.32854,79.83438 1.7393,27.07752 -4.1902,49.24612 -17.9005,72.74598 -0.6862,1.22068 -1.3724,2.44136 -2.0809,3.69986 -16.76684,27.12408 -44.93328,42.34544 -75.48794,50.13218 -35.09244,8.14318 -72.09576,2.06744 -102.99502,-15.76842 -22.4696,-13.49292 -42.91346,-31.10764 -61.09292,-49.70298 2.41808,-5.96808 6.82756,-9.94002 11.43246,-14.3455 0.82342,-0.79876 1.64686,-1.5975 2.49562,-2.421 2.62244,-2.54174 5.2553,-5.0733 7.88816,-7.6034 1.78408,-1.72554 3.56668,-3.45108 5.34928,-5.17806 4.36176,-4.22218 8.73394,-8.43708 13.11062,-12.6447 6.48744,5.36864 12.86002,10.8275 19.11178,16.45804 0.76822,0.68672 1.53644,1.372 2.32854,2.07908 3.6159,3.22848 7.20048,6.47584 10.7418,9.78144 17.65884,16.22526 37.52094,25.51636 62.07446,26.14926 19.33404,-0.63726 37.86104,-6.41474 52.19936,-19.43626 12.41696,-13.82756 15.43022,-29.46796 15.11398,-47.30236 -1.57972,-17.5827 -10.08992,-30.85448 -23.71518,-42.03992 -18.93128,-12.78728 -41.05182,-15.6622 -63.50202,-12.10638 -41.6858,9.32314 -70.6861,46.66946 -99.35972,74.94292 -3.70242,3.64894 -7.41082,7.2906 -11.12366,10.9279 -2.08244,2.04416 -4.1574,4.09852 -6.23088,6.1514 -1.25154,1.22504 -2.50308,2.45008 -3.79192,3.71296 -1.10088,1.08392 -2.20176,2.16928 -3.33696,3.28666 -2.71938,2.31332 -2.71938,2.31332 -5.7028,2.31332 -0.33414,0.80166 -0.66976,1.60478 -1.01436,2.43118 -2.5717,4.4244 -5.88478,7.48264 -9.61406,11.02684 -1.35746,1.29778 -2.7149,2.59556 -4.11414,3.93264 -1.04268,0.98208 -2.0839,1.9656 -3.15794,2.97822 -4.48108,-1.97432 -7.7345,-4.21636 -11.29818,-7.50884 -0.99052,-0.90932 -1.981,-1.81866 -3.00132,-2.75562 -1.03526,-0.9646 -2.069,-1.92776 -3.13558,-2.92148 -1.05912,-0.9777 -2.11822,-1.95686 -3.21016,-2.96366 -7.66738,-7.10292 -15.23034,-14.29606 -22.6143,-21.6783 2.3211,-5.65528 5.9012,-8.66988 10.55236,-12.6578 10.10184,-8.85756 19.70546,-18.17924 29.2867,-27.56348 0.78464,-0.76818 1.56928,-1.53492 2.37778,-2.3264 5.72966,-5.6058 11.45184,-11.21744 17.17106,-16.83196 5.75352,-5.6451 11.51002,-11.28874 17.271,-16.92656 2.27336,-2.22602 4.54226,-4.45786 6.81114,-6.68826 7.72108,-7.56994 15.59432,-14.84018 23.93296,-21.75978 1.41712,-1.24396 2.83426,-2.4879 4.29464,-3.76824 48.28512,-41.19896 127.46798,-48.3179 178.60822,-7.6849 z"
     fill="#F53532"
     id="path4542"
     style="fill:#ff2800;fill-opacity:1;stroke:none;stroke-width:1.47319;stroke-opacity:1" />
  <path
     d="m 641.82694,514.12936 c 10.94764,8.73824 20.69596,18.6346 30.6203,28.43932 2.32706,2.29732 4.6601,4.5888 6.99314,6.88176 2.05556,2.03108 2.05556,2.03108 4.1544,4.10288 3.30562,3.18918 6.74252,6.18486 10.25848,9.15144 6.13092,5.18388 11.94858,10.62674 17.71702,16.19034 1.05016,1.01408 2.10182,2.0267 3.1848,3.07134 2.20474,2.13 4.4065,4.26146 6.60678,6.39728 2.2286,2.1562 4.46318,4.30512 6.70372,6.4482 14.85592,14.20584 28.1381,27.30594 35.895,46.53124 0.58026,1.40838 1.16204,2.81674 1.7602,4.26876 6.7291,18.25486 4.36624,41.34008 -3.39214,58.85004 -5.26722,10.247 -12.29616,18.364 -20.55724,26.45044 -0.8249,0.83804 -1.64982,1.67606 -2.5001,2.54028 -17.59172,16.39114 -41.0742,18.68992 -64.07336,18.28252 -9.46488,-0.38408 -17.37094,-2.26094 -25.91246,-6.2736 -1.3306,-0.56742 -2.6612,-1.1334 -4.03208,-1.7168 -13.31648,-6.27216 -28.0665,-17.24954 -34.75234,-30.29144 12.79886,-12.4832 25.59772,-24.96642 38.78442,-37.82792 6.59186,5.51124 13.11362,11.03266 19.54884,16.7083 6.477,5.05294 11.68754,5.76876 19.83526,5.5578 7.5018,-0.8584 12.99576,-3.36522 18.20332,-8.72952 4.71378,-6.35946 5.92058,-12.05982 6.05484,-19.81164 -2.70448,-10.6733 -10.77164,-18.37274 -18.70454,-25.73318 -1.86762,-1.77354 -3.73226,-3.54854 -5.5939,-5.32644 -0.87862,-0.83804 -1.75724,-1.67608 -2.66272,-2.5403 -2.87152,-2.80654 -5.53572,-5.74258 -8.15216,-8.77462 -3.061,-3.53692 -6.2085,-6.58496 -9.8423,-9.55882 -7.5928,-6.40456 -14.66052,-13.30234 -21.73866,-20.23502 -2.25846,-2.21004 -4.52586,-4.41424 -6.79324,-6.61552 -7.17812,-6.99816 -14.1787,-14.0749 -20.7825,-21.59974 -3.02816,-3.40306 -6.26368,-6.57478 -9.55588,-9.73488 -1.1516,-1.11154 -2.3032,-2.22166 -3.4891,-3.36522 -0.84878,-0.8104 -1.69608,-1.62078 -2.57022,-2.45444 7.61368,-8.99432 15.93592,-17.1666 24.42674,-25.3709 1.3828,-1.34144 2.76562,-2.68434 4.1902,-4.0665 3.38468,-3.2852 6.77534,-6.56752 10.16748,-9.84544 z"
     fill="#F53431"
     id="path4544"
     style="fill:#ff2800;fill-opacity:1;stroke:none;stroke-width:1.47319;stroke-opacity:1" />
  <path
     d="m 396.71986,274.24946 c 6.28158,4.19452 12.04404,8.88228 17.71404,13.82172 1.1486,0.99226 1.1486,0.99226 2.32108,2.00634 4.499,4.08106 6.69778,7.51322 8.77424,13.08846 -0.69812,0.6358 -1.39624,1.27306 -2.11524,1.92922 -18.6046,16.94982 -18.6046,16.94982 -36.66918,34.44378 -4.94054,-2.07036 -7.80014,-4.57718 -11.37428,-8.45744 -7.67484,-7.65288 -15.92846,-12.53268 -26.85074,-14.18548 -11.13114,1.80992 -17.92736,6.53114 -24.42672,15.36832 -2.95808,5.7702 -2.09288,12.62434 -1.49172,18.91396 3.3444,8.59856 9.08748,13.18592 16.12836,19.12346 6.16074,5.2799 11.91874,10.95846 17.71404,16.61226 1.59462,1.54514 1.59462,1.54514 3.22058,3.12228 4.97934,4.86816 9.80948,9.78724 14.40692,15.00168 5.49994,6.22414 11.48318,11.8896 17.52162,17.61324 10.85814,10.41432 20.45878,21.31458 29.46124,33.2813 -2.36288,5.68584 -6.36364,9.49044 -10.78058,13.7068 -0.7563,0.73474 -1.51408,1.46948 -2.29426,2.22604 -2.4091,2.33514 -4.83014,4.65864 -7.24968,6.98216 -1.64088,1.5844 -3.2788,3.17026 -4.91818,4.75612 -4.00822,3.87882 -8.02688,7.74744 -12.05002,11.61172 -6.46506,-5.29592 -12.681,-10.71404 -18.64636,-16.54972 -1.30822,-1.2716 -2.61496,-2.5432 -3.96196,-3.85408 -3.10128,-3.09898 -6.0086,-6.31436 -8.89208,-9.60538 -6.07424,-6.7901 -12.58108,-13.09282 -19.17144,-19.40136 -2.5702,-2.48208 -5.13894,-4.96418 -7.70916,-7.44628 -4.00076,-3.857 -8.006,-7.71108 -12.01868,-11.55788 -3.9068,-3.74932 -7.80016,-7.51176 -11.69052,-11.27708 -1.18592,-1.12902 -2.37182,-2.2595 -3.59352,-3.42198 -11.82776,-11.48368 -21.05696,-24.1313 -27.68612,-39.0995 -0.47884,-1.06646 -0.95768,-2.13148 -1.45144,-3.22848 -7.7166,-20.44308 -3.65168,-44.6253 5.36718,-63.8797 11.50704,-21.19964 30.22798,-34.40886 53.0377,-42.17086 23.9091,-5.43704 48.36714,-1.55384 69.37488,10.52636 z"
     fill="#FF0400"
     id="path4546"
     style="fill:#ff2800;fill-opacity:1;stroke:none;stroke-width:1.47319;stroke-opacity:1" />
  <path
     d="m 458.3468,592.69502 c 5.37762,2.21874 8.81898,5.33518 12.9182,9.35368 1.30674,1.27742 2.61346,2.55484 3.959,3.87008 2.03022,2.00634 2.03022,2.00634 4.09922,4.05342 1.35894,1.32542 2.71788,2.65086 4.1171,4.01702 10.96704,10.76642 10.96704,10.76642 15.18262,16.53372 -2.28828,5.31626 -5.55812,8.64658 -9.76026,12.66216 -1.35596,1.30652 -2.71342,2.6145 -4.11114,3.9603 -1.43504,1.37052 -2.87154,2.74106 -4.30956,4.11014 -2.79098,2.67124 -5.57748,5.34538 -8.36102,8.02388 -1.23812,1.18286 -2.47772,2.36426 -3.75314,3.58202 -3.10722,3.12226 -6.03844,6.27216 -8.94876,9.56172 -5.68936,6.39728 -11.72184,12.40756 -17.85424,18.39892 -1.72442,1.68772 -1.72442,1.68772 -3.48166,3.41034 -2.41358,2.36134 -4.83014,4.72122 -7.24822,7.07818 -3.67258,3.58638 -7.33472,7.18584 -10.99686,10.78386 -2.3599,2.30606 -4.72126,4.6121 -7.08264,6.9167 -1.07998,1.06354 -2.15998,2.12854 -3.2728,3.2241 -8.5654,8.31778 -17.5619,16.06668 -28.47822,21.31602 -1.10386,0.5456 -2.20772,1.0912 -3.3444,1.65424 -12.0545,4.79542 -22.97232,6.8876 -35.9994,6.80322 -1.50066,-0.01 -3.0028,-0.018 -4.54972,-0.0262 -22.22644,-0.5165 -38.99324,-8.98996 -55.11862,-23.70792 -13.15238,-13.47256 -22.55314,-32.516 -23.4944,-51.19426 -0.0746,-1.09846 -0.1506,-2.19548 -0.22674,-3.32594 -1.05464,-25.94122 12.16488,-45.90708 29.40306,-64.28272 3.1296,-3.24302 6.3487,-6.38274 9.6081,-9.50208 5.04944,2.13144 8.3461,4.87252 12.2126,8.66696 1.7483,1.70806 1.7483,1.70806 3.53238,3.45252 1.2038,1.19158 2.40762,2.38316 3.64722,3.6111 1.20382,1.17558 2.40762,2.3497 3.64724,3.5602 5.58942,5.49232 10.85814,10.973 15.74498,17.08222 -2.1227,4.81722 -4.69292,7.60632 -8.6713,11.09376 -7.1259,6.83666 -13.10616,14.44008 -14.03102,24.44264 0.51166,7.41428 2.75668,12.59524 7.78522,18.29562 7.44812,5.48504 12.71832,7.38808 22.03104,7.75182 9.43804,-1.35454 15.76736,-7.48704 22.3473,-13.66316 0.94872,-0.87732 1.89746,-1.75608 2.87602,-2.66104 7.96272,-7.41282 15.79718,-14.95512 23.6018,-22.52652 1.65728,-1.6077 1.65728,-1.6077 3.34888,-3.24594 4.8242,-4.71976 9.53052,-9.45988 13.95196,-14.54338 8.7772,-9.9342 18.57176,-18.9867 28.10228,-28.22252 2.03768,-1.98016 4.07386,-3.9603 6.11004,-5.939 4.95248,-4.81432 9.90794,-9.62428 14.86786,-14.42988 z"
     fill="#FF0400"
     id="path4548"
     style="fill:#ff2800;fill-opacity:1;stroke:none;stroke-width:1.47319;stroke-opacity:1" />
  <path
     d="m 725.36262,276.97742 c 17.1606,13.15248 29.64472,29.79968 34.30928,50.9222 2.22712,26.6905 -1.82584,48.32808 -19.701,69.34148 -6.565,7.23094 -13.4716,14.136 -20.57512,20.86354 -5.83108,-2.30604 -9.73192,-6.20814 -14.05488,-10.5147 -0.75332,-0.7391 -1.50662,-1.47674 -2.28232,-2.23768 -2.39268,-2.35114 -4.77496,-4.71102 -7.1572,-7.0709 -1.62448,-1.60042 -3.25044,-3.19938 -4.8779,-4.79686 -3.9754,-3.91084 -7.94186,-7.82892 -11.90382,-11.75284 5.74158,-7.62234 11.69648,-14.77472 18.29728,-21.71032 5.79678,-6.77556 6.21894,-12.27516 6.04142,-20.93194 -0.88308,-7.33134 -4.73618,-11.1505 -10.16748,-15.91826 -7.18854,-4.90892 -12.69594,-6.73628 -21.62978,-5.45596 -8.95322,3.13244 -15.3646,8.34106 -21.91468,14.894 -0.91888,0.8948 -1.83778,1.78956 -2.78352,2.71198 -3.00132,2.93022 -5.98026,5.88078 -8.9592,8.83136 -2.0884,2.04854 -4.17828,4.0956 -6.26966,6.14122 -5.47606,5.36428 -10.9357,10.74458 -16.3909,16.1307 -5.57898,5.50106 -11.17588,10.9861 -16.76978,16.47114 -10.95808,10.7504 -21.89678,21.51828 -32.82354,32.29922 -1.67072,-1.38798 -3.33844,-2.77744 -5.00768,-4.1669 -0.92932,-0.774 -1.85866,-1.54802 -2.81634,-2.34386 -3.11916,-2.64506 -6.06528,-5.41666 -8.97562,-8.2785 -1.08296,-1.06064 -2.16744,-2.12272 -3.28324,-3.21536 -1.09492,-1.08102 -2.18984,-2.16056 -3.31904,-3.27358 -1.11132,-1.09264 -2.22416,-2.18382 -3.36978,-3.30848 -2.06602,-2.0267 -4.12906,-4.05486 -6.1891,-6.08448 -2.92822,-2.87928 -5.8654,-5.74694 -8.80704,-8.61166 4.48854,-5.3643 8.8846,-10.28192 14.3204,-14.7398 7.47644,-6.30416 14.38902,-13.10738 21.34038,-19.95132 2.10778,-2.06308 4.21408,-4.1276 6.32186,-6.19068 3.66064,-3.58638 7.31684,-7.17712 10.973,-10.76786 4.36922,-4.29202 8.73992,-8.58402 13.1166,-12.86878 2.71342,-2.65668 5.42384,-5.31772 8.1298,-7.98168 6.5143,-6.37836 13.10466,-12.5516 20.13956,-18.38436 2.78652,-2.37298 5.40148,-4.87544 8.02688,-7.41428 26.54198,-22.80004 71.71388,-20.33104 99.01216,-0.6358 z"
     fill="#FF0400"
     id="path4550"
     style="fill:#ff2800;fill-opacity:1;stroke:none;stroke-width:1.47319;stroke-opacity:1" />
  <path
     d="m 626.90986,597.05978 c 5.04644,2.12564 8.28048,4.84342 12.1082,8.66696 1.1516,1.1392 2.3032,2.2784 3.4906,3.45252 1.78556,1.78664 1.78556,1.78664 3.60694,3.6111 7.26462,7.24116 14.41438,14.3426 22.5621,20.64242 -2.43746,5.53014 -6.13988,9.85708 -10.1123,14.3906 -0.72198,0.8264 -1.44398,1.65426 -2.18834,2.50538 -8.61908,9.73778 -17.93182,18.77428 -27.29378,27.82534 -1.88402,1.83174 -3.76658,3.66348 -5.6491,5.49668 -4.88982,4.75906 -9.79008,9.50936 -14.69036,14.25676 -5.02704,4.87254 -10.04366,9.75378 -15.06176,14.63358 -9.80052,9.52682 -19.60852,19.04344 -29.42396,28.55572 -6.23086,-5.11114 -12.24544,-10.31102 -17.98852,-15.94738 -1.3112,-1.2847 -2.6239,-2.56938 -3.97688,-3.89336 -1.33508,-1.31526 -2.67016,-2.62904 -4.047,-3.98358 -1.37536,-1.3487 -2.75072,-2.69742 -4.16784,-4.08686 -3.36976,-3.30266 -6.73358,-6.60826 -10.09588,-9.91674 2.0675,-6.14268 4.89876,-9.67084 9.59168,-14.1942 1.37088,-1.3298 2.74028,-2.66104 4.15142,-4.03304 1.50066,-1.436 2.99982,-2.872 4.5005,-4.308 1.54392,-1.49276 3.08634,-2.98842 4.62876,-4.48408 4.05894,-3.93556 8.1313,-7.85656 12.20814,-11.77612 6.49788,-6.25178 12.97936,-12.52394 19.45786,-18.7961 2.24948,-2.1722 4.50346,-4.34002 6.75892,-6.5064 6.93794,-6.697 13.69836,-13.4289 20.01126,-20.69332 3.9575,-4.45206 8.2745,-8.55638 12.5751,-12.68836 1.3172,-1.2745 1.3172,-1.2745 2.66122,-2.57522 2.12418,-2.05434 4.25286,-4.10576 6.38302,-6.1543 z"
     fill="#F53330"
     id="path4552"
     style="fill:#ff2800;fill-opacity:1;stroke:none;stroke-width:1.47319;stroke-opacity:1" />
  <path
     d="m 480.72242,515.58428 c 4.38862,1.92776 7.46304,4.01412 10.83728,7.3517 0.9159,0.89914 1.8333,1.79828 2.77756,2.72506 1.46336,1.45638 1.46336,1.45638 2.95656,2.94332 1.02332,1.00534 2.04662,2.00924 3.09976,3.04514 3.26984,3.21538 6.53072,6.44094 9.79008,9.66794 3.23852,3.19936 6.48,6.39728 9.72596,9.58938 2.01678,1.9845 4.0291,3.97338 6.03694,5.96662 5.69982,5.61744 11.5861,10.90608 17.7215,16.06814 3.35484,2.86182 6.5098,5.87932 9.63494,8.97686 1.1874,1.16828 2.3733,2.3366 3.59502,3.54126 2.42104,2.3977 4.8406,4.79688 7.26164,7.19458 6.46952,6.37256 13.01068,12.49048 20.07092,18.24032 2.40316,2.1693 2.40316,2.1693 5.38656,6.53406 -13.29112,12.96334 -26.58224,25.92666 -40.27612,39.28282 -5.15534,-2.51408 -7.50032,-4.06794 -11.3504,-7.9293 -1.00392,-0.99518 -2.00784,-1.98888 -3.0416,-3.0146 -1.03524,-1.04026 -2.0705,-2.07908 -3.13558,-3.15134 -2.03916,-2.0398 -4.0828,-4.0767 -6.12942,-6.10922 -0.8995,-0.9035 -1.799,-1.80702 -2.72684,-2.73816 -2.87602,-2.70614 -5.80276,-5.23916 -8.83242,-7.7751 -7.71362,-6.53986 -14.87232,-13.5904 -22.0743,-20.65404 -1.4544,-1.42144 -2.90882,-2.84144 -4.36324,-4.26144 -3.79044,-3.70278 -7.5749,-7.40846 -11.35936,-11.1156 -3.87844,-3.79734 -7.75988,-7.58886 -11.6413,-11.38328 -7.58682,-7.41428 -15.16918,-14.83436 -22.74854,-22.25738 2.7164,-5.72946 6.52772,-9.65194 11.10576,-14.02688 1.18592,-1.15084 1.18592,-1.15084 2.39568,-2.3235 2.51652,-2.43844 5.04198,-4.86526 7.56894,-7.29206 1.71248,-1.6557 3.42346,-3.3114 5.13296,-4.96854 4.18574,-4.04904 8.38042,-8.09082 12.58106,-12.12676 z"
     fill="#F53331"
     id="path4554"
     style="fill:#ff2800;fill-opacity:1;stroke:none;stroke-width:1.47319;stroke-opacity:1" />
  <path
     d="m 462.82194,434.10876 c 8.51764,6.92834 16.46696,14.29168 24.33274,21.914 1.20978,1.1494 2.41806,2.29732 3.66364,3.48164 1.73186,1.67752 1.73186,1.67752 3.49806,3.38996 1.0427,1.00244 2.0854,2.00632 3.16092,3.04078 2.8268,3.3143 4.21108,6.3027 5.62076,10.3663 -1.84076,1.63678 -1.84076,1.63678 -3.71734,3.30704 -18.29282,16.25436 -18.29282,16.25436 -35.15808,33.88508 -6.33976,7.08108 -13.1136,13.6966 -19.94862,20.32232 -1.30972,1.2745 -2.61944,2.55048 -3.96794,3.86426 -4.14546,4.0345 -8.29538,8.06462 -12.44682,12.09474 -2.82678,2.7498 -5.65356,5.50106 -8.48036,8.25086 -6.89616,6.7101 -13.7968,13.41726 -20.70044,20.12008 -5.87284,-2.6494 -9.8945,-6.36818 -14.38156,-10.83334 -0.78612,-0.7711 -1.57226,-1.5422 -2.38224,-2.33514 -2.49862,-2.45444 -4.98828,-4.91908 -7.47646,-7.38226 -1.69756,-1.67024 -3.39512,-3.33904 -5.09268,-5.00784 -4.15292,-4.0825 -8.2969,-8.17372 -12.4349,-12.26932 5.93404,-6.93998 12.1276,-13.4842 18.70604,-19.8422 0.93082,-0.90496 1.86016,-1.80992 2.81932,-2.74252 2.00038,-1.94668 4.00226,-3.89046 6.00562,-5.83278 3.16988,-3.0728 6.3338,-6.1485 9.49622,-9.2271 6.70374,-6.52096 13.41344,-13.03754 20.12314,-19.55268 7.80462,-7.57722 15.60626,-15.15588 23.40044,-22.74184 3.12214,-3.03496 6.24726,-6.06556 9.3739,-9.09616 1.90192,-1.8492 3.80236,-3.6984 5.70428,-5.5476 0.87266,-0.84532 1.7453,-1.68918 2.6463,-2.55922 4.35578,-4.13488 4.35578,-4.13488 7.63606,-9.06706 z"
     fill="#F53330"
     id="path4556"
     style="fill:#ff2800;fill-opacity:1;stroke:none;stroke-width:1.47319;stroke-opacity:1" />
  <path
     d="m 638.84352,361.36278 c 10.57324,8.43562 20.09482,17.90568 29.74616,27.3132 1.8706,1.81864 3.73972,3.6373 5.61032,5.4574 3.9053,3.80026 7.8076,7.60342 11.70842,11.40948 4.97634,4.85362 9.96312,9.69704 14.9514,14.53756 3.86202,3.74932 7.7151,7.50594 11.5682,11.264 1.8348,1.78664 3.67108,3.57328 5.51036,5.35556 2.58066,2.50246 5.15088,5.01364 7.7181,7.52628 0.74734,0.7202 1.4932,1.44038 2.26292,2.1824 5.88182,5.78622 10.19732,11.56078 15.34372,18.25342 -12.79886,12.4832 -25.59772,24.96642 -38.78442,37.82792 -6.09364,-2.9724 -10.0049,-6.46712 -14.69482,-11.1156 -0.85624,-0.83802 -1.71398,-1.67606 -2.59706,-2.53882 -2.82978,-2.77018 -5.64912,-5.54906 -8.46992,-8.32942 -1.97204,-1.93214 -3.94558,-3.86428 -5.91912,-5.7964 -5.1986,-5.08932 -10.38824,-10.18736 -15.5764,-15.2883 -8.28644,-8.14318 -16.58184,-16.27764 -24.8832,-24.40774 -2.88794,-2.83128 -5.76992,-5.66838 -8.6534,-8.50546 -1.78856,-1.75608 -3.5786,-3.51072 -5.36866,-5.26536 -0.7906,-0.78128 -1.57972,-1.56112 -2.39418,-2.36424 -5.53276,-5.41376 -11.34146,-10.4245 -17.35454,-15.32322 2.7701,-5.86478 6.75296,-9.86872 11.43246,-14.3455 0.8234,-0.79876 1.64684,-1.5975 2.49562,-2.421 2.62242,-2.54174 5.2553,-5.0733 7.88814,-7.6034 1.7841,-1.72554 3.56668,-3.45108 5.34928,-5.17806 4.36176,-4.22218 8.73396,-8.43708 13.11062,-12.6447 z"
     fill="#F53431"
     id="path4558"
     style="fill:#ff2800;fill-opacity:1;stroke:none;stroke-width:1.47319;stroke-opacity:1" />
  <path
     d="m 318.12622,522.85888 c 5.93102,2.33224 9.9303,6.3638 14.3547,10.71402 1.23066,1.19304 1.23066,1.19304 2.48668,2.40934 2.70746,2.6276 5.40298,5.26536 8.09848,7.9046 1.88254,1.83464 3.76658,3.66784 5.6506,5.5025 3.94706,3.84534 7.88814,7.69652 11.82626,11.5506 5.036,4.92782 10.08544,9.84254 15.13786,14.75434 3.89336,3.7857 7.77926,7.58014 11.66366,11.37602 1.85718,1.81428 3.71884,3.62566 5.58048,5.43558 2.6105,2.53884 5.21054,5.08494 7.8076,7.63542 0.76376,0.7391 1.529,1.4782 2.31514,2.24058 4.88236,4.81724 8.0791,9.25328 12.03958,15.04678 -12.79886,12.48322 -25.59772,24.96642 -38.78442,37.8279 -4.59744,-2.24202 -7.01102,-3.54418 -10.55234,-6.78136 -1.29182,-1.17412 -1.29182,-1.17412 -2.60752,-2.37152 -1.37832,-1.27598 -1.37832,-1.27598 -2.78352,-2.57812 -0.96512,-0.88752 -1.93176,-1.77646 -2.92672,-2.6916 -7.736,-7.15384 -15.34224,-14.43428 -22.89774,-21.76852 -1.03374,-1.00244 -2.0675,-2.00342 -3.13258,-3.03642 -4.95992,-4.85216 -9.74532,-9.7756 -14.3368,-14.96384 -3.70094,-4.18144 -7.49584,-7.95114 -11.8054,-11.55352 -9.57228,-8.21302 -18.46288,-17.06622 -27.41014,-25.91504 7.82402,-9.26202 16.44012,-17.6569 25.17258,-26.09834 1.46934,-1.42584 2.93718,-2.8502 4.40502,-4.27602 3.5622,-3.45834 7.12888,-6.91232 10.69854,-10.36338 z"
     fill="#F53330"
     id="path4560"
     style="fill:#ff2800;fill-opacity:1;stroke:none;stroke-width:1.47319;stroke-opacity:1" />
  <path
     d="m 617.9596,438.47352 c 14.66798,11.64372 28.19478,25.10028 40.27614,39.28284 -1.99292,4.32984 -4.16486,7.33134 -7.645,10.63836 -0.80404,0.77404 -1.60808,1.5495 -2.43596,2.3468 -2.8626,2.58394 -5.78038,5.0602 -8.73992,7.53648 -7.51672,6.38564 -14.46362,13.29216 -21.45526,20.21612 -7.736,7.65868 -15.48244,15.12534 -23.85242,22.1206 -7.15422,6.23432 -13.7073,13.12628 -20.3633,19.8611 -1.13818,1.13048 -2.27634,2.2624 -3.44882,3.42634 -1.52752,1.53784 -1.52752,1.53784 -3.08486,3.10624 -4.90176,3.99668 -4.90176,3.99668 -8.91894,3.86282 -3.23848,-2.50682 -5.91014,-4.91908 -8.73992,-7.81582 -0.82044,-0.80894 -1.63938,-1.61788 -2.48368,-2.45154 -2.61646,-2.59412 -5.20608,-5.21006 -7.79568,-7.82894 -1.76768,-1.76044 -3.53684,-3.51944 -5.30898,-5.27698 -4.34088,-4.3153 -8.65938,-8.65096 -12.96444,-12.9997 2.29276,-5.30174 5.55064,-8.68442 9.70506,-12.73056 0.6802,-0.6649 1.36044,-1.33124 2.06004,-2.01652 2.24352,-2.19402 4.4975,-4.37784 6.75296,-6.56024 1.57376,-1.53202 3.14602,-3.0655 4.7168,-4.599 3.29964,-3.21536 6.60228,-6.42492 9.9094,-9.6301 4.2111,-4.0825 8.41176,-8.17374 12.60792,-12.26934 3.25044,-3.16882 6.50536,-6.33472 9.76026,-9.49918 1.54838,-1.50584 3.0953,-3.01168 4.64218,-4.51898 7.7912,-7.58886 15.62416,-15.06424 24.00458,-22.03912 2.9133,-2.4428 5.63866,-5.03112 8.32672,-7.70672 0.86072,-0.85258 1.72292,-1.70662 2.6105,-2.58538 0.61458,-0.6169 1.23064,-1.23378 1.86462,-1.86958 z"
     fill="#F53431"
     id="path4562"
     style="fill:#ff2800;fill-opacity:1;stroke:none;stroke-width:1.47319;stroke-opacity:1" />
  <path
     d="m 486.68926,359.90786 c 5.31048,2.58976 7.88816,4.42148 11.95604,8.3978 1.74084,1.6906 1.74084,1.6906 3.51596,3.41614 1.2426,1.22068 2.4837,2.44282 3.7621,3.70132 1.93772,1.88994 1.93772,1.88994 3.91274,3.8177 2.7343,2.66978 5.46264,5.34392 8.18948,8.02098 4.14546,4.06942 8.30284,8.12718 12.46174,12.1835 2.6597,2.6014 5.31794,5.20134 7.97466,7.80418 1.84824,1.80556 1.84824,1.80556 3.73524,3.6475 7.14828,7.02872 13.9609,14.2422 20.56918,21.75686 3.41154,3.69986 6.83948,7.38372 10.27338,11.06466 3.15646,3.4889 6.1384,7.12476 9.11882,10.75914 -12.79886,12.48322 -25.5977,24.96642 -38.78442,37.82792 -6.61274,-5.5287 -12.81974,-10.86244 -18.95066,-16.81742 -1.17098,-1.13484 -1.17098,-1.13484 -2.36436,-2.2915 -2.54038,-2.46464 -5.07628,-4.93364 -7.6107,-7.40408 -1.7796,-1.73136 -3.5607,-3.46272 -5.34032,-5.19552 -3.71434,-3.61256 -7.42422,-7.2295 -11.1341,-10.84788 -4.74512,-4.6281 -9.5007,-9.24748 -14.25924,-13.8625 -3.67258,-3.566 -7.33922,-7.13928 -11.00284,-10.71402 -1.75126,-1.70516 -3.50402,-3.40888 -5.25978,-5.11114 -2.45236,-2.37732 -4.89578,-4.7634 -7.3362,-7.15238 -1.3888,-1.35306 -2.77906,-2.70614 -4.2096,-4.09996 -3.5264,-3.7988 -3.5264,-3.7988 -8.00154,-11.0734 12.79886,-12.4832 25.59772,-24.96642 38.78442,-37.8279 z"
     fill="#F53330"
     id="path4564"
     style="fill:#ff2800;fill-opacity:1;stroke:none;stroke-width:1.47319;stroke-opacity:1" />
  <path
     d="m 461.33022,288.61678 c 5.6864,2.58248 9.29782,5.82404 13.7282,10.19462 0.72048,0.7071 1.43948,1.41274 2.18236,2.14166 2.2868,2.24638 4.56164,4.50152 6.838,6.75954 1.55286,1.52912 3.10722,3.05826 4.66158,4.5859 3.79938,3.7377 7.58982,7.48412 11.37428,11.23636 -2.14954,6.92832 -6.36512,11.16504 -11.53836,16.11324 -1.30972,1.27888 -1.30972,1.27888 -2.6463,2.58392 -2.879,2.8051 -5.7744,5.59418 -8.66832,8.38326 -2.00336,1.94522 -4.00672,3.8919 -6.0071,5.84006 -5.26274,5.11694 -10.53892,10.21934 -15.81808,15.32028 -5.38806,5.20862 -10.76268,10.4318 -16.13878,15.6535 -10.5434,10.23682 -21.10172,20.46054 -31.66898,30.67552 -4.20364,-1.97578 -7.25716,-3.81626 -10.52998,-7.07674 -0.82192,-0.81038 -1.64386,-1.62222 -2.49114,-2.45734 -1.26198,-1.26724 -1.26198,-1.26724 -2.54934,-2.56066 -0.83536,-0.82786 -1.67072,-1.6557 -2.53142,-2.50974 -1.6558,-1.6397 -3.30712,-3.28522 -4.95546,-4.93364 -2.00188,-1.98886 -4.03954,-3.94574 -6.08318,-5.89534 -2.9327,-2.92438 -5.667,-5.8764 -8.38192,-8.98704 -0.79806,-0.91222 -1.59462,-1.82446 -2.41656,-2.76434 -0.60414,-0.69254 -1.2068,-1.38508 -1.82884,-2.09798 10.45688,-10.26738 20.92122,-20.52456 31.39598,-30.77302 4.86448,-4.7605 9.72596,-9.52246 14.58146,-14.29168 4.6944,-4.60918 9.39626,-9.21254 14.10262,-13.8101 1.78556,-1.74736 3.56964,-3.49762 5.35076,-5.2508 9.53648,-9.38278 18.98496,-18.364 30.03852,-26.07944 z"
     fill="#F63331"
     id="path4566"
     style="fill:#ff2800;fill-opacity:1;stroke:none;stroke-width:1.47319;stroke-opacity:1" />
  <path
     d="m 579.17518,912.77736 c 2.38674,5.79786 0.42664,9.42788 -1.9586,15.00314 -2.21668,5.23626 -4.00076,9.6883 -5.03452,15.27666 -3.21912,7.62668 -10.12124,11.59862 -16.8742,16.27764 -0.98454,-0.48012 -1.96906,-0.96024 -2.98342,-1.45492 0.9905,-1.09264 1.98098,-2.18384 3.0013,-3.30848 11.4608,-12.8615 18.84028,-25.35344 23.84944,-41.79404 z"
     fill="#F42321"
     id="path4568"
     style="fill:#ff2800;fill-opacity:1;stroke:none;stroke-width:1.47319;stroke-opacity:1" />
  <path
     d="m 424.0375,796.3838 c 1.04868,2.47772 1.04868,2.47772 1.49172,5.81966 -1.981,3.43216 -1.981,3.43216 -4.84804,6.91088 -0.93084,1.16248 -1.86166,2.32496 -2.82084,3.52236 -2.77308,2.66104 -2.77308,2.66104 -7.2482,2.66104 -0.3804,0.99518 -0.76228,1.99178 -1.1531,3.0175 -2.11226,4.91036 -4.6243,9.49336 -7.23776,14.16802 -0.72646,1.3036 -0.72646,1.3036 -1.46784,2.63486 -1.18592,2.12418 -2.3763,4.24544 -3.56668,6.36818 -0.49226,-0.96026 -0.98454,-1.9205 -1.4917,-2.90984 6.21146,-15.68112 16.1537,-30.30598 28.34244,-42.19266 z"
     fill="#F52221"
     id="path4570"
     style="fill:#ff2800;fill-opacity:1;stroke:none;stroke-width:1.47319;stroke-opacity:1" />
  <path
     d="m 407.62872,284.25202 c 5.47158,2.18676 8.48634,5.29156 12.30658,9.63884 1.05316,1.18868 2.1078,2.37736 3.19376,3.6024 0.7921,0.91222 1.5842,1.823 2.40016,2.76288 -2.2674,4.89872 -3.7606,6.70428 -8.95024,8.72952 0.79954,-0.8104 1.5991,-1.62078 2.42402,-2.4559 0.67722,-1.1101 1.35298,-2.22022 2.0511,-3.36378 -1.2262,-4.56554 -2.54038,-6.84248 -5.96684,-10.18444 -1.4768,0.7202 -1.4768,0.7202 -2.98342,1.45492 -0.49226,-1.44036 -0.98452,-2.88074 -1.4917,-4.36476 -2.23756,-2.4268 -2.23756,-2.4268 -4.47512,-4.36476 0.49226,-0.48012 0.98452,-0.96024 1.4917,-1.45492 z"
     fill="#F42321"
     id="path4572"
     style="fill:#ff2800;fill-opacity:1;stroke:none;stroke-width:1.47319;stroke-opacity:1" />
  <path
     d="m 461.66884,290.5591 c 0.87266,0.32008 1.7453,0.63872 2.6448,0.96752 -2.48668,2.4239 -4.97186,4.84924 -7.45854,7.2746 -1.01586,1.07956 -2.03022,2.16056 -3.0774,3.27356 -3.02966,2.6698 -4.86446,3.4438 -8.85628,4.00104 1.81244,-6.67808 5.56408,-10.04622 10.66274,-14.49246 2.76264,-1.51166 2.76264,-1.51166 6.08468,-1.02426 z"
     fill="#F52E2C"
     id="path4574"
     style="fill:#ff2800;fill-opacity:1;stroke:none;stroke-width:1.47319;stroke-opacity:1" />
  <path
     d="m 887.95882,450.11288 c 6.39944,0 12.79888,0 19.39222,0 0,0.96024 0,1.9205 0,2.90984 2.46132,0 4.92264,0 7.45854,0 0,0.96024 0,1.9205 0,2.90984 -8.36848,-0.48012 -16.73696,-0.96024 -25.35904,-1.45492 -0.49226,-1.44036 -0.98452,-2.88074 -1.49172,-4.36476 z"
     fill="#F6423E"
     id="path4576"
     style="fill:#ff2800;fill-opacity:1;stroke:none;stroke-width:1.47319;stroke-opacity:1" />
  <path
     d="m 1019.2292,501.03508 c 0.4922,0 0.9845,0 1.4917,0 0.4922,12.00308 0.9845,24.00616 1.4917,36.373 -1.4768,0.48012 -2.9536,0.96024 -4.4751,1.45492 0.4922,-12.48322 0.9845,-24.96644 1.4917,-37.82792 z"
     fill="#F5413E"
     id="path4578"
     style="fill:#ff2800;fill-opacity:1;stroke:none;stroke-width:1.47319;stroke-opacity:1" />
  <path
     d="m 893.92566,399.19068 c 0,0.96026 0,1.9205 0,2.90984 -2.61048,0.0786 -5.22098,0.1338 -7.83146,0.1818 -1.45442,0.0334 -2.90734,0.067 -4.40502,0.1018 -4.20214,-0.28664 -6.57396,-1.0912 -10.13914,-3.19356 7.79716,-1.75608 14.56654,-1.10138 22.37562,0 z"
     fill="#F52825"
     id="path4580"
     style="fill:#ff2800;fill-opacity:1;stroke:none;stroke-width:1.47319;stroke-opacity:1" />
  <path
     d="m 297.2423,602.87946 c 5.78036,2.5461 5.78036,2.5461 7.45854,5.81968 -2.03022,-0.0902 -2.03022,-0.0902 -4.1022,-0.1818 -4.66606,0.1746 -6.91556,0.75072 -10.8149,3.0917 2.46132,-2.88074 4.92264,-5.76148 7.45856,-8.72952 z"
     fill="#F53E3D"
     id="path4582"
     style="fill:#ff2800;fill-opacity:1;stroke:none;stroke-width:1.47319;stroke-opacity:1" />
  <path
     d="m 609.00936,292.98154 c 1.47678,0.96024 2.95358,1.9205 4.47512,2.90984 -0.92336,0.35936 -1.84674,0.7202 -2.79694,1.0912 -3.69348,2.11836 -4.58852,3.82352 -6.15332,7.63832 -0.98452,-0.48012 -1.96904,-0.96024 -2.9834,-1.45492 5.78036,-8.54764 5.78036,-8.54764 7.45854,-10.18444 z"
     fill="#F73F3C"
     id="path4584"
     style="fill:#ff2800;fill-opacity:1;stroke:none;stroke-width:1.47319;stroke-opacity:1" />
  <path
     d="m 389.72822,106.75123 c 0,4.80124 0,9.60247 0,14.5492 -4.47512,-4.36476 -4.47512,-4.36476 -4.75556,-9.00232 0.0926,-1.35045 0.185,-2.70077 0.28044,-4.09196 2.9834,-1.45492 2.9834,-1.45492 4.47512,-1.45492 z"
     fill="#F74542"
     id="path4586"
     style="fill:#ff2800;fill-opacity:1;stroke:none;stroke-width:1.47319;stroke-opacity:1" />
  <path
     d="m 277.85008,384.6415 c 0.64592,0.68962 1.29182,1.37924 1.95714,2.09072 2.5523,2.6174 2.5523,2.6174 6.99312,3.72896 0.49226,2.88072 0.98452,5.76148 1.4917,8.7295 -5.06286,-4.54954 -8.3625,-8.09808 -10.44196,-14.54918 z"
     fill="#F41E1B"
     id="path4588"
     style="fill:#ff2800;fill-opacity:1;stroke:none;stroke-width:1.47319;stroke-opacity:1" />
  <path
     d="m 929.72666,627.61164 c -0.49226,0.96024 -0.98452,1.9205 -1.4917,2.90984 -3.44586,0 -6.8917,0 -10.44196,0 -0.49226,-0.96024 -0.98454,-1.9205 -1.4917,-2.90984 5.03898,-1.22796 8.46544,-1.61204 13.42536,0 z"
     fill="#F82E2B"
     id="path4590"
     style="fill:#ff2800;fill-opacity:1;stroke:none;stroke-width:1.47319;stroke-opacity:1" />
</svg>
